<svg width="850" height="300" viewBox="0 0 850 300" fill="none" xmlns="http://www.w3.org/2000/svg">

  <style>
    * {
      transform-origin: center;
      transform-box: fill-box;
    }

    .animate-fade-in-bottom {
      animation: fade-in-bottom 0.64s cubic-bezier(0, 0, 0.2, 1) forwards;
    }

    .title {
      opacity: 0;
      animation-delay: 0.4s;
    }

    .description {
      opacity: 0;
      animation-delay: 0.7s;
    }

    @keyframes fade-in-bottom {
      from {
        opacity: 0;
        transform: translate3d(0, -20px, 0);
      }
      to {
        opacity: 1;
        transform: translate3d(0, 0, 0);
      }
    }

  </style>
  <g clip-path="url(#clip0_211_2)">
    <rect width="850" height="300" rx="20" fill="url(#paint0_linear_211_2)"/>

    <path d="M-37.9982 430.364L11.3092 318.06C23.9468 289.276 46.5483 266.021 74.96 252.568L185.812 200.078L296.664 147.589C325.075 134.135 347.677 110.88 360.315 82.0962L409.622 -30.2074" stroke-width="2.46923" stroke-linecap="round" stroke-linejoin="round" stroke="url(#paint1_linear_211_2)" />
    <path d="M-43.2335 254.498L2.56161 183.53C18.1723 159.339 41.3437 140.988 68.4681 131.335L148.04 103.016L227.611 74.6979C254.736 65.0447 277.907 46.6937 293.518 22.5023L339.313 -48.465" stroke-width="2.46923" stroke-linecap="round" stroke-linejoin="round" stroke="url(#paint1_linear_211_2)" />
    <path d="M-43.2335 254.498L2.56161 183.53C18.1723 159.339 41.3437 140.988 68.4681 131.335L148.04 103.016L227.611 74.6979C254.736 65.0447 277.907 46.6937 293.518 22.5023L339.313 -48.465" stroke-width="2.46923" stroke-linecap="round" stroke-linejoin="round" stroke="url(#paint1_linear_211_2)" />
    <path d="M-21.2335 217.498L24.5616 146.53C40.1723 122.339 63.3437 103.988 90.4681 94.3346L170.04 66.0162L249.611 37.6979C276.736 28.0447 299.907 9.69373 315.518 -14.4977L361.313 -85.465" stroke-width="2.46923" stroke-linecap="round" stroke-linejoin="round" stroke="url(#paint1_linear_211_2)" />
    <path d="M73.0624 434.447L143.269 308.928C157.121 284.164 178.664 264.588 204.638 253.166L336.29 195.269L467.941 137.372C493.915 125.95 515.459 106.374 529.31 81.6102L599.517 -43.9094" stroke-width="2.46923" stroke-linecap="round" stroke-linejoin="round" stroke="url(#paint1_linear_211_2)" />
    <path d="M680.729 -2.65021L643.284 64.6684C633.453 82.3432 619.648 97.4914 602.96 108.918L539.399 152.437L475.838 195.957C459.15 207.383 445.346 222.531 435.514 240.206L398.069 307.524" stroke-width="2.46923" stroke-linecap="round" stroke-linejoin="round" stroke="url(#paint1_linear_211_2)" />
    <path d="M505.351 298.299L508.427 269.042C514.169 214.426 553.486 169.246 606.786 156.015L635.338 148.928L663.889 141.841C717.189 128.61 756.506 83.4307 762.248 28.814L765.324 -0.442687" stroke-width="2.46923" stroke-linecap="round" stroke-linejoin="round" stroke="url(#paint1_linear_211_2)" />
    <path d="M851.458 110.087L849.109 118.579C838.604 156.556 811.505 187.754 775.372 203.47L767.292 206.984L759.211 210.499C723.078 226.215 695.979 257.413 685.474 295.39L683.125 303.882" stroke-width="2.46923" stroke-linecap="round" stroke-linejoin="round" stroke="url(#paint1_linear_211_2)" />
    <path d="M852.155 2.3691L821.035 63.957C811.28 83.2638 796.879 99.8431 779.127 112.204L722.5 151.636L665.873 191.068C648.121 203.429 633.72 220.008 623.965 239.315L592.845 300.903" stroke-width="2.46923" stroke-linecap="round" stroke-linejoin="round" stroke="url(#paint1_linear_211_2)" />
    <path d="M529.675 -34.4717V-34.4717C529.894 18.4235 493.202 64.3135 441.555 75.7389V75.7389V75.7389C389.908 87.1644 353.216 133.054 353.435 185.95V185.95" stroke-width="2.46923" stroke-linecap="round" stroke-linejoin="round" stroke="url(#paint1_linear_211_2)" />
    <path d="M-6.09301 63.6504L34.304 24.7985C42.8522 16.5774 52.4809 9.55967 62.9245 3.93917L112.279 -22.6224L161.634 -49.184C172.077 -54.8045 181.706 -61.8222 190.254 -70.0433L230.651 -108.895" stroke-width="2.46923" stroke-linecap="round" stroke-linejoin="round" stroke="url(#paint1_linear_211_2)" />
    <path d="M141.907 221.65L180.764 184.055C189.476 175.626 199.319 168.452 210.011 162.739L257.698 137.259L305.385 111.779C316.076 106.066 325.92 98.8919 334.631 90.4631L373.489 52.8674" stroke-width="2.46923" stroke-linecap="round" stroke-linejoin="round" stroke="url(#paint1_linear_211_2)" />
    <path d="M-64.9843 103.904L-26.5969 73.6036C-7.42289 58.4689 15.6135 49.0187 39.8924 46.3279L88.5 40.9407L137.108 35.5536C161.386 32.8628 184.423 23.4126 203.597 8.27787L241.984 -22.0227" stroke-width="2.46923" stroke-linecap="round" stroke-linejoin="round" stroke="url(#paint1_linear_211_2)" />
    <g class="animate-fade-in-bottom title">
      <path d="M183.224 150V116.4H186.92V150H183.224ZM193.541 125.088L196.421 114H200.165L196.277 125.088H193.541ZM206.272 150V126.576H209.776V130.224C210.672 128.88 211.696 127.872 212.848 127.2C214 126.528 215.296 126.192 216.736 126.192C218.4 126.192 219.856 126.608 221.104 127.44C222.352 128.24 223.296 129.344 223.936 130.752C224.864 129.248 225.968 128.112 227.248 127.344C228.56 126.576 230.064 126.192 231.76 126.192C233.328 126.192 234.704 126.56 235.888 127.296C237.104 128.032 238.048 129.056 238.72 130.368C239.392 131.648 239.728 133.152 239.728 134.88V150H236.224V135.744C236.224 133.696 235.712 132.08 234.688 130.896C233.664 129.712 232.256 129.12 230.464 129.12C229.248 129.12 228.144 129.424 227.152 130.032C226.192 130.64 225.344 131.568 224.608 132.816C224.672 133.136 224.72 133.472 224.752 133.824C224.784 134.176 224.8 134.528 224.8 134.88V150H221.296V135.744C221.296 133.696 220.768 132.08 219.712 130.896C218.688 129.712 217.28 129.12 215.488 129.12C213.088 129.12 211.184 130.272 209.776 132.576V150H206.272ZM366.885 150L380.181 116.4H384.597L397.701 150H393.717L389.733 139.44H374.757L370.773 150H366.885ZM375.909 136.512H388.629L382.245 119.76L375.909 136.512ZM401.741 150V115.68L405.245 114.96V129.792C406.141 128.672 407.229 127.808 408.509 127.2C409.789 126.592 411.213 126.288 412.781 126.288C414.829 126.288 416.653 126.832 418.253 127.92C419.885 128.976 421.181 130.416 422.141 132.24C423.101 134.032 423.581 136.048 423.581 138.288C423.581 140.528 423.085 142.56 422.093 144.384C421.133 146.208 419.821 147.664 418.157 148.752C416.525 149.808 414.669 150.336 412.589 150.336C411.117 150.336 409.741 150.048 408.461 149.472C407.213 148.864 406.125 148.016 405.197 146.928V150H401.741ZM411.917 147.312C413.485 147.312 414.877 146.928 416.093 146.16C417.341 145.36 418.317 144.288 419.021 142.944C419.757 141.568 420.125 140.032 420.125 138.336C420.125 136.608 419.757 135.072 419.021 133.728C418.317 132.384 417.341 131.328 416.093 130.56C414.877 129.76 413.485 129.36 411.917 129.36C410.541 129.36 409.261 129.648 408.077 130.224C406.925 130.768 405.981 131.552 405.245 132.576V144.048C406.013 145.072 406.973 145.872 408.125 146.448C409.309 147.024 410.573 147.312 411.917 147.312ZM439.469 150.336C437.453 150.336 435.629 149.808 433.997 148.752C432.365 147.664 431.069 146.224 430.109 144.432C429.149 142.608 428.669 140.576 428.669 138.336C428.669 136.064 429.149 134.032 430.109 132.24C431.101 130.416 432.429 128.976 434.093 127.92C435.757 126.832 437.613 126.288 439.661 126.288C441.101 126.288 442.445 126.576 443.693 127.152C444.941 127.696 446.029 128.496 446.957 129.552V115.344L450.461 114.624V150H446.957V146.88C446.061 148 444.973 148.864 443.693 149.472C442.413 150.048 441.005 150.336 439.469 150.336ZM440.333 147.264C441.709 147.264 442.973 146.992 444.125 146.448C445.277 145.904 446.221 145.136 446.957 144.144V132.528C446.189 131.536 445.213 130.768 444.029 130.224C442.877 129.648 441.645 129.36 440.333 129.36C438.765 129.36 437.357 129.744 436.109 130.512C434.893 131.28 433.917 132.336 433.181 133.68C432.477 135.024 432.125 136.56 432.125 138.288C432.125 139.984 432.477 141.52 433.181 142.896C433.917 144.24 434.893 145.312 436.109 146.112C437.357 146.88 438.765 147.264 440.333 147.264ZM457.615 150V126.576H461.118V150H457.615ZM459.391 120.768C458.687 120.768 458.079 120.528 457.567 120.048C457.087 119.536 456.847 118.944 456.847 118.272C456.847 117.6 457.087 117.024 457.567 116.544C458.079 116.032 458.687 115.776 459.391 115.776C460.095 115.776 460.687 116.032 461.167 116.544C461.679 117.024 461.935 117.6 461.935 118.272C461.935 118.944 461.679 119.536 461.167 120.048C460.687 120.528 460.095 120.768 459.391 120.768ZM468.303 150V115.344L471.807 114.624V150H468.303ZM478.991 150V115.344L482.495 114.624V150H478.991ZM496.926 150.432C495.262 150.432 493.79 150.128 492.51 149.52C491.23 148.912 490.222 148.08 489.486 147.024C488.782 145.936 488.43 144.688 488.43 143.28C488.43 141.872 488.798 140.656 489.534 139.632C490.27 138.576 491.294 137.76 492.606 137.184C493.918 136.608 495.454 136.32 497.214 136.32C498.558 136.32 499.822 136.464 501.006 136.752C502.222 137.04 503.342 137.504 504.366 138.144V134.928C504.366 133.008 503.854 131.568 502.83 130.608C501.806 129.616 500.302 129.12 498.318 129.12C497.23 129.12 496.11 129.28 494.958 129.6C493.838 129.92 492.59 130.432 491.214 131.136L489.918 128.448C493.054 126.944 495.998 126.192 498.75 126.192C501.662 126.192 503.902 126.912 505.47 128.352C507.038 129.76 507.822 131.792 507.822 134.448V150H504.366V147.264C503.342 148.32 502.206 149.12 500.958 149.664C499.71 150.176 498.366 150.432 496.926 150.432ZM491.79 143.184C491.79 144.56 492.318 145.664 493.374 146.496C494.462 147.328 495.886 147.744 497.646 147.744C498.958 147.744 500.158 147.52 501.246 147.072C502.366 146.624 503.406 145.952 504.366 145.056V140.544C503.374 139.968 502.35 139.552 501.294 139.296C500.238 139.008 499.054 138.864 497.742 138.864C495.95 138.864 494.51 139.264 493.422 140.064C492.334 140.832 491.79 141.872 491.79 143.184ZM514.944 150V115.344L518.448 114.624V130.368C519.344 128.96 520.416 127.92 521.664 127.248C522.912 126.544 524.32 126.192 525.888 126.192C527.584 126.192 529.056 126.56 530.304 127.296C531.584 128 532.576 129.008 533.28 130.32C534.016 131.6 534.384 133.104 534.384 134.832V150H530.88V135.84C530.88 133.76 530.304 132.128 529.152 130.944C528.032 129.728 526.512 129.12 524.592 129.12C523.312 129.12 522.144 129.424 521.088 130.032C520.032 130.64 519.152 131.536 518.448 132.72V150H514.944ZM561.847 150.528C558.999 150.528 556.519 149.776 554.407 148.272C552.327 146.768 550.823 144.656 549.895 141.936L553.255 140.592C554.055 142.736 555.175 144.368 556.615 145.488C558.055 146.608 559.815 147.168 561.895 147.168C564.519 147.168 566.615 146.272 568.183 144.48C569.751 142.688 570.535 140.288 570.535 137.28V116.4H574.231V137.328C574.231 140.016 573.719 142.352 572.695 144.336C571.703 146.32 570.279 147.856 568.423 148.944C566.567 150 564.375 150.528 561.847 150.528ZM589.765 150.384C588.101 150.384 586.629 150.016 585.349 149.28C584.069 148.544 583.061 147.52 582.325 146.208C581.621 144.896 581.269 143.392 581.269 141.696V126.576H584.821V140.688C584.821 142.768 585.381 144.416 586.501 145.632C587.621 146.848 589.141 147.456 591.061 147.456C592.373 147.456 593.541 147.152 594.565 146.544C595.621 145.936 596.501 145.056 597.205 143.904V126.576H600.709V150H597.205V146.208C596.309 147.584 595.237 148.624 593.989 149.328C592.773 150.032 591.365 150.384 589.765 150.384ZM615.145 150.48C613.225 150.48 611.449 150.192 609.817 149.616C608.185 149.008 606.793 148.144 605.641 147.024L607.513 144.72C608.921 145.744 610.217 146.496 611.401 146.976C612.585 147.424 613.801 147.648 615.049 147.648C616.745 147.648 618.153 147.248 619.273 146.448C620.393 145.648 620.953 144.624 620.953 143.376C620.953 142.416 620.617 141.664 619.945 141.12C619.305 140.576 618.233 140.16 616.729 139.872L612.889 139.2C610.617 138.784 608.937 138.08 607.849 137.088C606.793 136.096 606.265 134.752 606.265 133.056C606.265 131.712 606.617 130.528 607.321 129.504C608.057 128.48 609.065 127.68 610.345 127.104C611.625 126.496 613.081 126.192 614.713 126.192C616.313 126.192 617.833 126.432 619.273 126.912C620.713 127.36 622.169 128.096 623.641 129.12L621.913 131.568C620.697 130.704 619.481 130.08 618.265 129.696C617.049 129.28 615.817 129.072 614.569 129.072C613.033 129.072 611.801 129.408 610.873 130.08C609.945 130.752 609.481 131.664 609.481 132.816C609.481 133.776 609.769 134.512 610.345 135.024C610.953 135.536 612.009 135.92 613.513 136.176L617.449 136.896C619.817 137.312 621.545 138.032 622.633 139.056C623.721 140.08 624.265 141.456 624.265 143.184C624.265 144.56 623.865 145.808 623.065 146.928C622.265 148.016 621.177 148.88 619.801 149.52C618.425 150.16 616.873 150.48 615.145 150.48ZM637.952 150.384C636.288 150.384 634.816 150.016 633.536 149.28C632.256 148.544 631.248 147.52 630.512 146.208C629.808 144.896 629.456 143.392 629.456 141.696V126.576H633.008V140.688C633.008 142.768 633.568 144.416 634.688 145.632C635.808 146.848 637.328 147.456 639.248 147.456C640.56 147.456 641.728 147.152 642.752 146.544C643.808 145.936 644.688 145.056 645.392 143.904V126.576H648.896V150H645.392V146.208C644.496 147.584 643.424 148.624 642.176 149.328C640.96 150.032 639.552 150.384 637.952 150.384ZM659.06 150V129.456H653.828V126.576H659.06V121.68C659.06 119.376 659.668 117.6 660.884 116.352C662.1 115.104 663.828 114.48 666.068 114.48C666.708 114.48 667.284 114.512 667.796 114.576C668.34 114.64 668.82 114.752 669.236 114.912V118.08C668.724 117.92 668.26 117.808 667.844 117.744C667.428 117.68 666.948 117.648 666.404 117.648C665.06 117.648 664.084 117.984 663.476 118.656C662.868 119.296 662.564 120.32 662.564 121.728V126.576H669.236V129.456H662.564V150H659.06Z" fill="#205295"/>
      <path d="M271.432 150L284.728 116.4H289.144L302.248 150H298.264L294.28 139.44H279.304L275.32 150H271.432ZM280.456 136.512H293.176L286.792 119.76L280.456 136.512ZM306.404 150V129.456H301.172V126.576H306.404V121.68C306.404 119.376 307.012 117.6 308.228 116.352C309.444 115.104 311.172 114.48 313.412 114.48C314.052 114.48 314.628 114.512 315.14 114.576C315.684 114.64 316.164 114.752 316.58 114.912V118.08C316.068 117.92 315.604 117.808 315.188 117.744C314.772 117.68 314.292 117.648 313.748 117.648C312.404 117.648 311.428 117.984 310.82 118.656C310.212 119.296 309.908 120.32 309.908 121.728V126.576H316.58V129.456H309.908V150H306.404ZM321.146 150V126.576H324.65V150H321.146ZM322.922 120.768C322.218 120.768 321.61 120.528 321.098 120.048C320.618 119.536 320.378 118.944 320.378 118.272C320.378 117.6 320.618 117.024 321.098 116.544C321.61 116.032 322.218 115.776 322.922 115.776C323.626 115.776 324.218 116.032 324.698 116.544C325.21 117.024 325.466 117.6 325.466 118.272C325.466 118.944 325.21 119.536 324.698 120.048C324.218 120.528 323.626 120.768 322.922 120.768ZM334.81 150V129.456H329.578V126.576H334.81V121.68C334.81 119.376 335.418 117.6 336.634 116.352C337.85 115.104 339.578 114.48 341.818 114.48C342.458 114.48 343.034 114.512 343.546 114.576C344.09 114.64 344.57 114.752 344.986 114.912V118.08C344.474 117.92 344.01 117.808 343.594 117.744C343.178 117.68 342.698 117.648 342.154 117.648C340.81 117.648 339.834 117.984 339.226 118.656C338.618 119.296 338.314 120.32 338.314 121.728V126.576H344.986V129.456H338.314V150H334.81Z" fill="#0A2647"/>
    </g>

    <g class="animate-fade-in-bottom description">
      <path d="M61.52 185.18C60.8267 185.18 60.2133 185.053 59.68 184.8C59.1467 184.547 58.7267 184.2 58.42 183.76C58.1267 183.307 57.98 182.787 57.98 182.2C57.98 181.613 58.1333 181.107 58.44 180.68C58.7467 180.24 59.1733 179.9 59.72 179.66C60.2667 179.42 60.9067 179.3 61.64 179.3C62.2 179.3 62.7267 179.36 63.22 179.48C63.7267 179.6 64.1933 179.793 64.62 180.06V178.72C64.62 177.92 64.4067 177.32 63.98 176.92C63.5533 176.507 62.9267 176.3 62.1 176.3C61.6467 176.3 61.18 176.367 60.7 176.5C60.2333 176.633 59.7133 176.847 59.14 177.14L58.6 176.02C59.9067 175.393 61.1333 175.08 62.28 175.08C63.4933 175.08 64.4267 175.38 65.08 175.98C65.7333 176.567 66.06 177.413 66.06 178.52V185H64.62V183.86C64.1933 184.3 63.72 184.633 63.2 184.86C62.68 185.073 62.12 185.18 61.52 185.18ZM59.38 182.16C59.38 182.733 59.6 183.193 60.04 183.54C60.4933 183.887 61.0867 184.06 61.82 184.06C62.3667 184.06 62.8667 183.967 63.32 183.78C63.7867 183.593 64.22 183.313 64.62 182.94V181.06C64.2067 180.82 63.78 180.647 63.34 180.54C62.9 180.42 62.4067 180.36 61.86 180.36C61.1133 180.36 60.5133 180.527 60.06 180.86C59.6067 181.18 59.38 181.613 59.38 182.16ZM74.9353 185V176.44H72.7553V175.24H74.9353V173.2C74.9353 172.24 75.1886 171.5 75.6953 170.98C76.202 170.46 76.922 170.2 77.8553 170.2C78.122 170.2 78.362 170.213 78.5753 170.24C78.802 170.267 79.002 170.313 79.1753 170.38V171.7C78.962 171.633 78.7686 171.587 78.5953 171.56C78.422 171.533 78.222 171.52 77.9953 171.52C77.4353 171.52 77.0286 171.66 76.7753 171.94C76.522 172.207 76.3953 172.633 76.3953 173.22V175.24H79.1753V176.44H76.3953V185H74.9353ZM84.5777 185.16C83.8843 185.16 83.271 185.007 82.7377 184.7C82.2043 184.393 81.7843 183.967 81.4777 183.42C81.1843 182.873 81.0377 182.247 81.0377 181.54V175.24H82.5177V181.12C82.5177 181.987 82.751 182.673 83.2177 183.18C83.6843 183.687 84.3177 183.94 85.1177 183.94C85.6643 183.94 86.151 183.813 86.5777 183.56C87.0177 183.307 87.3843 182.94 87.6777 182.46V175.24H89.1377V185H87.6777V183.42C87.3043 183.993 86.8577 184.427 86.3377 184.72C85.831 185.013 85.2443 185.16 84.5777 185.16ZM92.1328 185V170.56L93.5928 170.26V185H92.1328ZM96.5859 185V170.56L98.0459 170.26V185H96.5859ZM100.759 180V178.74H107.419V180H100.759ZM113.161 185.2C112.361 185.2 111.621 185.08 110.941 184.84C110.261 184.587 109.681 184.227 109.201 183.76L109.981 182.8C110.567 183.227 111.107 183.54 111.601 183.74C112.094 183.927 112.601 184.02 113.121 184.02C113.827 184.02 114.414 183.853 114.881 183.52C115.347 183.187 115.581 182.76 115.581 182.24C115.581 181.84 115.441 181.527 115.161 181.3C114.894 181.073 114.447 180.9 113.821 180.78L112.221 180.5C111.274 180.327 110.574 180.033 110.121 179.62C109.681 179.207 109.461 178.647 109.461 177.94C109.461 177.38 109.607 176.887 109.901 176.46C110.207 176.033 110.627 175.7 111.161 175.46C111.694 175.207 112.301 175.08 112.981 175.08C113.647 175.08 114.281 175.18 114.881 175.38C115.481 175.567 116.087 175.873 116.701 176.3L115.981 177.32C115.474 176.96 114.967 176.7 114.461 176.54C113.954 176.367 113.441 176.28 112.921 176.28C112.281 176.28 111.767 176.42 111.381 176.7C110.994 176.98 110.801 177.36 110.801 177.84C110.801 178.24 110.921 178.547 111.161 178.76C111.414 178.973 111.854 179.133 112.481 179.24L114.121 179.54C115.107 179.713 115.827 180.013 116.281 180.44C116.734 180.867 116.961 181.44 116.961 182.16C116.961 182.733 116.794 183.253 116.461 183.72C116.127 184.173 115.674 184.533 115.101 184.8C114.527 185.067 113.881 185.2 113.161 185.2ZM122.708 185.2C121.868 185.2 121.228 185 120.788 184.6C120.362 184.187 120.148 183.593 120.148 182.82V176.44H118.128V175.24H120.148V172.56L121.608 172.22V175.24H124.408V176.44H121.608V182.44C121.608 182.96 121.715 183.333 121.928 183.56C122.155 183.787 122.522 183.9 123.028 183.9C123.282 183.9 123.508 183.88 123.708 183.84C123.908 183.8 124.142 183.733 124.408 183.64V184.94C124.142 185.033 123.862 185.1 123.568 185.14C123.275 185.18 122.988 185.2 122.708 185.2ZM129.567 185.18C128.874 185.18 128.26 185.053 127.727 184.8C127.194 184.547 126.774 184.2 126.467 183.76C126.174 183.307 126.027 182.787 126.027 182.2C126.027 181.613 126.18 181.107 126.487 180.68C126.794 180.24 127.22 179.9 127.767 179.66C128.314 179.42 128.954 179.3 129.687 179.3C130.247 179.3 130.774 179.36 131.267 179.48C131.774 179.6 132.24 179.793 132.667 180.06V178.72C132.667 177.92 132.454 177.32 132.027 176.92C131.6 176.507 130.974 176.3 130.147 176.3C129.694 176.3 129.227 176.367 128.747 176.5C128.28 176.633 127.76 176.847 127.187 177.14L126.647 176.02C127.954 175.393 129.18 175.08 130.327 175.08C131.54 175.08 132.474 175.38 133.127 175.98C133.78 176.567 134.107 177.413 134.107 178.52V185H132.667V183.86C132.24 184.3 131.767 184.633 131.247 184.86C130.727 185.073 130.167 185.18 129.567 185.18ZM127.427 182.16C127.427 182.733 127.647 183.193 128.087 183.54C128.54 183.887 129.134 184.06 129.867 184.06C130.414 184.06 130.914 183.967 131.367 183.78C131.834 183.593 132.267 183.313 132.667 182.94V181.06C132.254 180.82 131.827 180.647 131.387 180.54C130.947 180.42 130.454 180.36 129.907 180.36C129.16 180.36 128.56 180.527 128.107 180.86C127.654 181.18 127.427 181.613 127.427 182.16ZM141.454 185.16C140.548 185.16 139.728 184.94 138.994 184.5C138.274 184.047 137.701 183.44 137.274 182.68C136.848 181.907 136.634 181.053 136.634 180.12C136.634 179.173 136.848 178.32 137.274 177.56C137.701 176.8 138.274 176.2 138.994 175.76C139.728 175.307 140.548 175.08 141.454 175.08C142.174 175.08 142.861 175.213 143.514 175.48C144.168 175.747 144.734 176.12 145.214 176.6L144.274 177.62C143.928 177.233 143.508 176.933 143.014 176.72C142.521 176.507 142.021 176.4 141.514 176.4C140.874 176.4 140.294 176.567 139.774 176.9C139.268 177.233 138.861 177.68 138.554 178.24C138.248 178.8 138.094 179.427 138.094 180.12C138.094 180.813 138.248 181.44 138.554 182C138.861 182.56 139.268 183.007 139.774 183.34C140.294 183.673 140.874 183.84 141.514 183.84C142.021 183.84 142.521 183.733 143.014 183.52C143.508 183.293 143.928 182.993 144.274 182.62L145.214 183.64C144.734 184.12 144.168 184.493 143.514 184.76C142.861 185.027 142.174 185.16 141.454 185.16ZM147.25 185V170.56L148.71 170.26V179.62L153.35 175.24H155.11L150.15 179.88L155.33 185H153.41L148.71 180.34V185H147.25ZM165.763 185.14C164.923 185.14 164.163 184.92 163.483 184.48C162.803 184.027 162.263 183.427 161.863 182.68C161.463 181.92 161.263 181.073 161.263 180.14C161.263 179.193 161.463 178.347 161.863 177.6C162.276 176.84 162.83 176.24 163.523 175.8C164.216 175.347 164.99 175.12 165.843 175.12C166.443 175.12 167.003 175.24 167.523 175.48C168.043 175.707 168.496 176.04 168.883 176.48V170.56L170.343 170.26V185H168.883V183.7C168.51 184.167 168.056 184.527 167.523 184.78C166.99 185.02 166.403 185.14 165.763 185.14ZM166.123 183.86C166.696 183.86 167.223 183.747 167.703 183.52C168.183 183.293 168.576 182.973 168.883 182.56V177.72C168.563 177.307 168.156 176.987 167.663 176.76C167.183 176.52 166.67 176.4 166.123 176.4C165.47 176.4 164.883 176.56 164.363 176.88C163.856 177.2 163.45 177.64 163.143 178.2C162.85 178.76 162.703 179.4 162.703 180.12C162.703 180.827 162.85 181.467 163.143 182.04C163.45 182.6 163.856 183.047 164.363 183.38C164.883 183.7 165.47 183.86 166.123 183.86ZM177.744 185.2C176.837 185.2 176.017 184.98 175.284 184.54C174.55 184.087 173.97 183.48 173.544 182.72C173.117 181.947 172.904 181.08 172.904 180.12C172.904 179.16 173.104 178.3 173.504 177.54C173.917 176.78 174.47 176.18 175.164 175.74C175.857 175.3 176.63 175.08 177.484 175.08C178.35 175.08 179.117 175.3 179.784 175.74C180.464 176.167 180.997 176.753 181.384 177.5C181.784 178.233 181.984 179.067 181.984 180V180.44H174.324C174.377 181.107 174.557 181.707 174.864 182.24C175.184 182.76 175.597 183.173 176.104 183.48C176.624 183.773 177.19 183.92 177.804 183.92C178.31 183.92 178.797 183.833 179.264 183.66C179.744 183.473 180.15 183.227 180.484 182.92L181.404 183.9C180.844 184.34 180.264 184.667 179.664 184.88C179.064 185.093 178.424 185.2 177.744 185.2ZM174.364 179.4H180.544C180.477 178.813 180.297 178.293 180.004 177.84C179.724 177.373 179.364 177.007 178.924 176.74C178.497 176.473 178.017 176.34 177.484 176.34C176.95 176.34 176.464 176.473 176.024 176.74C175.584 176.993 175.217 177.353 174.924 177.82C174.644 178.273 174.457 178.8 174.364 179.4ZM186.984 185L182.984 175.24H184.564L187.724 183.18L190.844 175.24H192.404L188.384 185H186.984ZM198.31 185.2C197.403 185.2 196.583 184.98 195.85 184.54C195.117 184.087 194.537 183.48 194.11 182.72C193.683 181.947 193.47 181.08 193.47 180.12C193.47 179.16 193.67 178.3 194.07 177.54C194.483 176.78 195.037 176.18 195.73 175.74C196.423 175.3 197.197 175.08 198.05 175.08C198.917 175.08 199.683 175.3 200.35 175.74C201.03 176.167 201.563 176.753 201.95 177.5C202.35 178.233 202.55 179.067 202.55 180V180.44H194.89C194.943 181.107 195.123 181.707 195.43 182.24C195.75 182.76 196.163 183.173 196.67 183.48C197.19 183.773 197.757 183.92 198.37 183.92C198.877 183.92 199.363 183.833 199.83 183.66C200.31 183.473 200.717 183.227 201.05 182.92L201.97 183.9C201.41 184.34 200.83 184.667 200.23 184.88C199.63 185.093 198.99 185.2 198.31 185.2ZM194.93 179.4H201.11C201.043 178.813 200.863 178.293 200.57 177.84C200.29 177.373 199.93 177.007 199.49 176.74C199.063 176.473 198.583 176.34 198.05 176.34C197.517 176.34 197.03 176.473 196.59 176.74C196.15 176.993 195.783 177.353 195.49 177.82C195.21 178.273 195.023 178.8 194.93 179.4ZM205.043 185V170.56L206.503 170.26V185H205.043ZM213.816 185.16C212.909 185.16 212.096 184.94 211.376 184.5C210.656 184.06 210.089 183.46 209.676 182.7C209.263 181.94 209.056 181.08 209.056 180.12C209.056 179.16 209.263 178.3 209.676 177.54C210.089 176.78 210.656 176.18 211.376 175.74C212.096 175.3 212.909 175.08 213.816 175.08C214.709 175.08 215.509 175.3 216.216 175.74C216.936 176.18 217.503 176.78 217.916 177.54C218.329 178.3 218.536 179.16 218.536 180.12C218.536 181.08 218.329 181.94 217.916 182.7C217.503 183.46 216.936 184.06 216.216 184.5C215.509 184.94 214.709 185.16 213.816 185.16ZM213.796 183.88C214.436 183.88 215.003 183.72 215.496 183.4C215.989 183.067 216.376 182.613 216.656 182.04C216.949 181.467 217.096 180.827 217.096 180.12C217.096 179.4 216.949 178.76 216.656 178.2C216.376 177.627 215.989 177.18 215.496 176.86C215.003 176.527 214.436 176.36 213.796 176.36C213.156 176.36 212.589 176.527 212.096 176.86C211.603 177.18 211.209 177.627 210.916 178.2C210.636 178.76 210.496 179.4 210.496 180.12C210.496 180.827 210.636 181.467 210.916 182.04C211.209 182.613 211.603 183.067 212.096 183.4C212.589 183.72 213.156 183.88 213.796 183.88ZM221.098 189.18V175.24H222.538V176.64C222.911 176.147 223.364 175.773 223.898 175.52C224.444 175.253 225.044 175.12 225.698 175.12C226.551 175.12 227.311 175.347 227.978 175.8C228.658 176.24 229.198 176.84 229.598 177.6C229.998 178.347 230.198 179.187 230.198 180.12C230.198 181.053 229.991 181.9 229.578 182.66C229.178 183.42 228.631 184.027 227.938 184.48C227.258 184.92 226.484 185.14 225.618 185.14C225.004 185.14 224.438 185.027 223.918 184.8C223.398 184.56 222.944 184.22 222.558 183.78V189.18H221.098ZM225.338 183.88C225.991 183.88 226.571 183.72 227.078 183.4C227.598 183.067 228.004 182.62 228.298 182.06C228.604 181.487 228.758 180.847 228.758 180.14C228.758 179.42 228.604 178.78 228.298 178.22C228.004 177.66 227.598 177.22 227.078 176.9C226.571 176.567 225.991 176.4 225.338 176.4C224.764 176.4 224.231 176.52 223.738 176.76C223.258 176.987 222.864 177.313 222.558 177.74V182.52C222.878 182.947 223.278 183.28 223.758 183.52C224.251 183.76 224.778 183.88 225.338 183.88ZM237.158 185.2C236.251 185.2 235.431 184.98 234.698 184.54C233.964 184.087 233.384 183.48 232.958 182.72C232.531 181.947 232.318 181.08 232.318 180.12C232.318 179.16 232.518 178.3 232.918 177.54C233.331 176.78 233.884 176.18 234.578 175.74C235.271 175.3 236.044 175.08 236.898 175.08C237.764 175.08 238.531 175.3 239.198 175.74C239.878 176.167 240.411 176.753 240.798 177.5C241.198 178.233 241.398 179.067 241.398 180V180.44H233.738C233.791 181.107 233.971 181.707 234.278 182.24C234.598 182.76 235.011 183.173 235.518 183.48C236.038 183.773 236.604 183.92 237.218 183.92C237.724 183.92 238.211 183.833 238.678 183.66C239.158 183.473 239.564 183.227 239.898 182.92L240.818 183.9C240.258 184.34 239.678 184.667 239.078 184.88C238.478 185.093 237.838 185.2 237.158 185.2ZM233.778 179.4H239.958C239.891 178.813 239.711 178.293 239.418 177.84C239.138 177.373 238.778 177.007 238.338 176.74C237.911 176.473 237.431 176.34 236.898 176.34C236.364 176.34 235.878 176.473 235.438 176.74C234.998 176.993 234.631 177.353 234.338 177.82C234.058 178.273 233.871 178.8 233.778 179.4ZM243.891 185V175.24H245.351V177.24C245.604 176.56 245.964 176.033 246.431 175.66C246.911 175.273 247.457 175.08 248.071 175.08C248.244 175.08 248.404 175.093 248.551 175.12C248.697 175.133 248.844 175.167 248.991 175.22V176.54C248.831 176.487 248.657 176.447 248.471 176.42C248.297 176.38 248.131 176.36 247.971 176.36C247.371 176.36 246.844 176.533 246.391 176.88C245.951 177.227 245.604 177.713 245.351 178.34V185H243.891ZM255.59 185V170.56L257.05 170.26V185H255.59ZM264.363 185.16C263.456 185.16 262.643 184.94 261.923 184.5C261.203 184.06 260.636 183.46 260.223 182.7C259.81 181.94 259.603 181.08 259.603 180.12C259.603 179.16 259.81 178.3 260.223 177.54C260.636 176.78 261.203 176.18 261.923 175.74C262.643 175.3 263.456 175.08 264.363 175.08C265.256 175.08 266.056 175.3 266.763 175.74C267.483 176.18 268.05 176.78 268.463 177.54C268.876 178.3 269.083 179.16 269.083 180.12C269.083 181.08 268.876 181.94 268.463 182.7C268.05 183.46 267.483 184.06 266.763 184.5C266.056 184.94 265.256 185.16 264.363 185.16ZM264.343 183.88C264.983 183.88 265.55 183.72 266.043 183.4C266.536 183.067 266.923 182.613 267.203 182.04C267.496 181.467 267.643 180.827 267.643 180.12C267.643 179.4 267.496 178.76 267.203 178.2C266.923 177.627 266.536 177.18 266.043 176.86C265.55 176.527 264.983 176.36 264.343 176.36C263.703 176.36 263.136 176.527 262.643 176.86C262.15 177.18 261.756 177.627 261.463 178.2C261.183 178.76 261.043 179.4 261.043 180.12C261.043 180.827 261.183 181.467 261.463 182.04C261.756 182.613 262.15 183.067 262.643 183.4C263.136 183.72 263.703 183.88 264.343 183.88ZM274.152 185L270.152 175.24H271.732L274.892 183.18L278.012 175.24H279.572L275.552 185H274.152ZM285.478 185.2C284.571 185.2 283.751 184.98 283.018 184.54C282.285 184.087 281.705 183.48 281.278 182.72C280.851 181.947 280.638 181.08 280.638 180.12C280.638 179.16 280.838 178.3 281.238 177.54C281.651 176.78 282.205 176.18 282.898 175.74C283.591 175.3 284.365 175.08 285.218 175.08C286.085 175.08 286.851 175.3 287.518 175.74C288.198 176.167 288.731 176.753 289.118 177.5C289.518 178.233 289.718 179.067 289.718 180V180.44H282.058C282.111 181.107 282.291 181.707 282.598 182.24C282.918 182.76 283.331 183.173 283.838 183.48C284.358 183.773 284.925 183.92 285.538 183.92C286.045 183.92 286.531 183.833 286.998 183.66C287.478 183.473 287.885 183.227 288.218 182.92L289.138 183.9C288.578 184.34 287.998 184.667 287.398 184.88C286.798 185.093 286.158 185.2 285.478 185.2ZM282.098 179.4H288.278C288.211 178.813 288.031 178.293 287.738 177.84C287.458 177.373 287.098 177.007 286.658 176.74C286.231 176.473 285.751 176.34 285.218 176.34C284.685 176.34 284.198 176.473 283.758 176.74C283.318 176.993 282.951 177.353 282.658 177.82C282.378 178.273 282.191 178.8 282.098 179.4ZM295.329 185.2C294.529 185.2 293.789 185.08 293.109 184.84C292.429 184.587 291.849 184.227 291.369 183.76L292.149 182.8C292.735 183.227 293.275 183.54 293.769 183.74C294.262 183.927 294.769 184.02 295.289 184.02C295.995 184.02 296.582 183.853 297.049 183.52C297.515 183.187 297.749 182.76 297.749 182.24C297.749 181.84 297.609 181.527 297.329 181.3C297.062 181.073 296.615 180.9 295.989 180.78L294.389 180.5C293.442 180.327 292.742 180.033 292.289 179.62C291.849 179.207 291.629 178.647 291.629 177.94C291.629 177.38 291.775 176.887 292.069 176.46C292.375 176.033 292.795 175.7 293.329 175.46C293.862 175.207 294.469 175.08 295.149 175.08C295.815 175.08 296.449 175.18 297.049 175.38C297.649 175.567 298.255 175.873 298.869 176.3L298.149 177.32C297.642 176.96 297.135 176.7 296.629 176.54C296.122 176.367 295.609 176.28 295.089 176.28C294.449 176.28 293.935 176.42 293.549 176.7C293.162 176.98 292.969 177.36 292.969 177.84C292.969 178.24 293.089 178.547 293.329 178.76C293.582 178.973 294.022 179.133 294.649 179.24L296.289 179.54C297.275 179.713 297.995 180.013 298.449 180.44C298.902 180.867 299.129 181.44 299.129 182.16C299.129 182.733 298.962 183.253 298.629 183.72C298.295 184.173 297.842 184.533 297.269 184.8C296.695 185.067 296.049 185.2 295.329 185.2ZM306.02 189.18V175.24H307.46V176.64C307.833 176.147 308.286 175.773 308.82 175.52C309.366 175.253 309.966 175.12 310.62 175.12C311.473 175.12 312.233 175.347 312.9 175.8C313.58 176.24 314.12 176.84 314.52 177.6C314.92 178.347 315.12 179.187 315.12 180.12C315.12 181.053 314.913 181.9 314.5 182.66C314.1 183.42 313.553 184.027 312.86 184.48C312.18 184.92 311.406 185.14 310.54 185.14C309.926 185.14 309.36 185.027 308.84 184.8C308.32 184.56 307.866 184.22 307.48 183.78V189.18H306.02ZM310.26 183.88C310.913 183.88 311.493 183.72 312 183.4C312.52 183.067 312.926 182.62 313.22 182.06C313.526 181.487 313.68 180.847 313.68 180.14C313.68 179.42 313.526 178.78 313.22 178.22C312.926 177.66 312.52 177.22 312 176.9C311.493 176.567 310.913 176.4 310.26 176.4C309.686 176.4 309.153 176.52 308.66 176.76C308.18 176.987 307.786 177.313 307.48 177.74V182.52C307.8 182.947 308.2 183.28 308.68 183.52C309.173 183.76 309.7 183.88 310.26 183.88ZM317.68 185V175.24H319.14V177.24C319.393 176.56 319.753 176.033 320.22 175.66C320.7 175.273 321.246 175.08 321.86 175.08C322.033 175.08 322.193 175.093 322.34 175.12C322.486 175.133 322.633 175.167 322.78 175.22V176.54C322.62 176.487 322.446 176.447 322.26 176.42C322.086 176.38 321.92 176.36 321.76 176.36C321.16 176.36 320.633 176.533 320.18 176.88C319.74 177.227 319.393 177.713 319.14 178.34V185H317.68ZM328.425 185.16C327.519 185.16 326.705 184.94 325.985 184.5C325.265 184.06 324.699 183.46 324.285 182.7C323.872 181.94 323.665 181.08 323.665 180.12C323.665 179.16 323.872 178.3 324.285 177.54C324.699 176.78 325.265 176.18 325.985 175.74C326.705 175.3 327.519 175.08 328.425 175.08C329.319 175.08 330.119 175.3 330.825 175.74C331.545 176.18 332.112 176.78 332.525 177.54C332.939 178.3 333.145 179.16 333.145 180.12C333.145 181.08 332.939 181.94 332.525 182.7C332.112 183.46 331.545 184.06 330.825 184.5C330.119 184.94 329.319 185.16 328.425 185.16ZM328.405 183.88C329.045 183.88 329.612 183.72 330.105 183.4C330.599 183.067 330.985 182.613 331.265 182.04C331.559 181.467 331.705 180.827 331.705 180.12C331.705 179.4 331.559 178.76 331.265 178.2C330.985 177.627 330.599 177.18 330.105 176.86C329.612 176.527 329.045 176.36 328.405 176.36C327.765 176.36 327.199 176.527 326.705 176.86C326.212 177.18 325.819 177.627 325.525 178.2C325.245 178.76 325.105 179.4 325.105 180.12C325.105 180.827 325.245 181.467 325.525 182.04C325.819 182.613 326.212 183.067 326.705 183.4C327.199 183.72 327.765 183.88 328.405 183.88ZM335.707 185V170.7L337.167 170.4V176.58C337.54 176.113 337.994 175.753 338.527 175.5C339.06 175.247 339.654 175.12 340.307 175.12C341.16 175.12 341.92 175.347 342.587 175.8C343.267 176.24 343.807 176.84 344.207 177.6C344.607 178.347 344.807 179.187 344.807 180.12C344.807 181.053 344.6 181.9 344.187 182.66C343.787 183.42 343.24 184.027 342.547 184.48C341.867 184.92 341.094 185.14 340.227 185.14C339.614 185.14 339.04 185.02 338.507 184.78C337.987 184.527 337.534 184.173 337.147 183.72V185H335.707ZM339.947 183.88C340.6 183.88 341.18 183.72 341.687 183.4C342.207 183.067 342.614 182.62 342.907 182.06C343.214 181.487 343.367 180.847 343.367 180.14C343.367 179.42 343.214 178.78 342.907 178.22C342.614 177.66 342.207 177.22 341.687 176.9C341.18 176.567 340.6 176.4 339.947 176.4C339.374 176.4 338.84 176.52 338.347 176.76C337.867 176.987 337.474 177.313 337.167 177.74V182.52C337.487 182.947 337.887 183.28 338.367 183.52C338.86 183.76 339.387 183.88 339.947 183.88ZM347.367 185V170.56L348.827 170.26V185H347.367ZM356.22 185.2C355.314 185.2 354.494 184.98 353.76 184.54C353.027 184.087 352.447 183.48 352.02 182.72C351.594 181.947 351.38 181.08 351.38 180.12C351.38 179.16 351.58 178.3 351.98 177.54C352.394 176.78 352.947 176.18 353.64 175.74C354.334 175.3 355.107 175.08 355.96 175.08C356.827 175.08 357.594 175.3 358.26 175.74C358.94 176.167 359.474 176.753 359.86 177.5C360.26 178.233 360.46 179.067 360.46 180V180.44H352.8C352.854 181.107 353.034 181.707 353.34 182.24C353.66 182.76 354.074 183.173 354.58 183.48C355.1 183.773 355.667 183.92 356.28 183.92C356.787 183.92 357.274 183.833 357.74 183.66C358.22 183.473 358.627 183.227 358.96 182.92L359.88 183.9C359.32 184.34 358.74 184.667 358.14 184.88C357.54 185.093 356.9 185.2 356.22 185.2ZM352.84 179.4H359.02C358.954 178.813 358.774 178.293 358.48 177.84C358.2 177.373 357.84 177.007 357.4 176.74C356.974 176.473 356.494 176.34 355.96 176.34C355.427 176.34 354.94 176.473 354.5 176.74C354.06 176.993 353.694 177.353 353.4 177.82C353.12 178.273 352.934 178.8 352.84 179.4ZM362.953 185V175.24H364.413V176.76C364.786 176.2 365.213 175.78 365.693 175.5C366.173 175.22 366.713 175.08 367.313 175.08C368.006 175.08 368.613 175.253 369.133 175.6C369.653 175.933 370.046 176.393 370.313 176.98C370.7 176.353 371.16 175.88 371.693 175.56C372.24 175.24 372.866 175.08 373.573 175.08C374.226 175.08 374.8 175.233 375.293 175.54C375.8 175.847 376.193 176.273 376.473 176.82C376.753 177.353 376.893 177.98 376.893 178.7V185H375.433V179.06C375.433 178.207 375.22 177.533 374.793 177.04C374.366 176.547 373.78 176.3 373.033 176.3C372.526 176.3 372.066 176.427 371.653 176.68C371.253 176.933 370.9 177.32 370.593 177.84C370.62 177.973 370.64 178.113 370.653 178.26C370.666 178.407 370.673 178.553 370.673 178.7V185H369.213V179.06C369.213 178.207 368.993 177.533 368.553 177.04C368.126 176.547 367.54 176.3 366.793 176.3C365.793 176.3 365 176.78 364.413 177.74V185H362.953ZM379.568 180V178.74H386.228V180H379.568ZM391.969 185.2C391.169 185.2 390.429 185.08 389.749 184.84C389.069 184.587 388.489 184.227 388.009 183.76L388.789 182.8C389.376 183.227 389.916 183.54 390.409 183.74C390.903 183.927 391.409 184.02 391.929 184.02C392.636 184.02 393.223 183.853 393.689 183.52C394.156 183.187 394.389 182.76 394.389 182.24C394.389 181.84 394.249 181.527 393.969 181.3C393.703 181.073 393.256 180.9 392.629 180.78L391.029 180.5C390.083 180.327 389.383 180.033 388.929 179.62C388.489 179.207 388.269 178.647 388.269 177.94C388.269 177.38 388.416 176.887 388.709 176.46C389.016 176.033 389.436 175.7 389.969 175.46C390.503 175.207 391.109 175.08 391.789 175.08C392.456 175.08 393.089 175.18 393.689 175.38C394.289 175.567 394.896 175.873 395.509 176.3L394.789 177.32C394.283 176.96 393.776 176.7 393.269 176.54C392.763 176.367 392.249 176.28 391.729 176.28C391.089 176.28 390.576 176.42 390.189 176.7C389.803 176.98 389.609 177.36 389.609 177.84C389.609 178.24 389.729 178.547 389.969 178.76C390.223 178.973 390.663 179.133 391.289 179.24L392.929 179.54C393.916 179.713 394.636 180.013 395.089 180.44C395.543 180.867 395.769 181.44 395.769 182.16C395.769 182.733 395.603 183.253 395.269 183.72C394.936 184.173 394.483 184.533 393.909 184.8C393.336 185.067 392.689 185.2 391.969 185.2ZM402.41 185.16C401.503 185.16 400.69 184.94 399.97 184.5C399.25 184.06 398.683 183.46 398.27 182.7C397.857 181.94 397.65 181.08 397.65 180.12C397.65 179.16 397.857 178.3 398.27 177.54C398.683 176.78 399.25 176.18 399.97 175.74C400.69 175.3 401.503 175.08 402.41 175.08C403.303 175.08 404.103 175.3 404.81 175.74C405.53 176.18 406.097 176.78 406.51 177.54C406.923 178.3 407.13 179.16 407.13 180.12C407.13 181.08 406.923 181.94 406.51 182.7C406.097 183.46 405.53 184.06 404.81 184.5C404.103 184.94 403.303 185.16 402.41 185.16ZM402.39 183.88C403.03 183.88 403.597 183.72 404.09 183.4C404.583 183.067 404.97 182.613 405.25 182.04C405.543 181.467 405.69 180.827 405.69 180.12C405.69 179.4 405.543 178.76 405.25 178.2C404.97 177.627 404.583 177.18 404.09 176.86C403.597 176.527 403.03 176.36 402.39 176.36C401.75 176.36 401.183 176.527 400.69 176.86C400.197 177.18 399.803 177.627 399.51 178.2C399.23 178.76 399.09 179.4 399.09 180.12C399.09 180.827 399.23 181.467 399.51 182.04C399.803 182.613 400.197 183.067 400.69 183.4C401.183 183.72 401.75 183.88 402.39 183.88ZM409.691 185V170.56L411.151 170.26V185H409.691ZM416.945 185L412.945 175.24H414.525L417.685 183.18L420.805 175.24H422.365L418.345 185H416.945ZM424.144 185V175.24H425.604V185H424.144ZM424.884 172.82C424.591 172.82 424.337 172.72 424.124 172.52C423.924 172.307 423.824 172.06 423.824 171.78C423.824 171.5 423.924 171.26 424.124 171.06C424.337 170.847 424.591 170.74 424.884 170.74C425.177 170.74 425.424 170.847 425.624 171.06C425.837 171.26 425.944 171.5 425.944 171.78C425.944 172.06 425.837 172.307 425.624 172.52C425.424 172.72 425.177 172.82 424.884 172.82ZM428.598 185V175.24H430.058V176.82C430.431 176.233 430.878 175.8 431.398 175.52C431.918 175.227 432.504 175.08 433.158 175.08C433.864 175.08 434.478 175.233 434.998 175.54C435.531 175.833 435.944 176.253 436.238 176.8C436.544 177.333 436.698 177.96 436.698 178.68V185H435.238V179.1C435.238 178.233 434.998 177.553 434.518 177.06C434.051 176.553 433.418 176.3 432.618 176.3C432.084 176.3 431.598 176.427 431.158 176.68C430.718 176.933 430.351 177.307 430.058 177.8V185H428.598ZM444.153 189.38C443.499 189.38 442.839 189.287 442.173 189.1C441.519 188.927 440.913 188.68 440.353 188.36L440.973 187.24C441.573 187.547 442.119 187.773 442.613 187.92C443.106 188.067 443.599 188.14 444.093 188.14C444.986 188.14 445.659 187.927 446.113 187.5C446.579 187.073 446.813 186.453 446.813 185.64V183.68C446.439 184.147 445.986 184.507 445.453 184.76C444.919 185 444.333 185.12 443.693 185.12C442.853 185.12 442.093 184.9 441.413 184.46C440.733 184.007 440.193 183.407 439.793 182.66C439.393 181.9 439.193 181.053 439.193 180.12C439.193 179.187 439.393 178.347 439.793 177.6C440.206 176.84 440.759 176.24 441.453 175.8C442.146 175.347 442.919 175.12 443.773 175.12C444.386 175.12 444.953 175.24 445.473 175.48C445.993 175.707 446.446 176.047 446.833 176.5V175.24H448.273V185.62C448.273 186.833 447.919 187.76 447.213 188.4C446.506 189.053 445.486 189.38 444.153 189.38ZM444.053 183.86C444.626 183.86 445.153 183.747 445.633 183.52C446.113 183.28 446.506 182.953 446.813 182.54V177.72C446.493 177.307 446.086 176.987 445.593 176.76C445.113 176.52 444.599 176.4 444.053 176.4C443.399 176.4 442.813 176.56 442.293 176.88C441.786 177.2 441.379 177.64 441.073 178.2C440.779 178.76 440.633 179.4 440.633 180.12C440.633 180.827 440.779 181.467 441.073 182.04C441.379 182.6 441.786 183.047 442.293 183.38C442.813 183.7 443.399 183.86 444.053 183.86ZM450.773 188.14L451.973 183.52H453.533L451.913 188.14H450.773ZM463.961 185.2C463.161 185.2 462.421 185.08 461.741 184.84C461.061 184.587 460.481 184.227 460.001 183.76L460.781 182.8C461.368 183.227 461.908 183.54 462.401 183.74C462.895 183.927 463.401 184.02 463.921 184.02C464.628 184.02 465.215 183.853 465.681 183.52C466.148 183.187 466.381 182.76 466.381 182.24C466.381 181.84 466.241 181.527 465.961 181.3C465.695 181.073 465.248 180.9 464.621 180.78L463.021 180.5C462.075 180.327 461.375 180.033 460.921 179.62C460.481 179.207 460.261 178.647 460.261 177.94C460.261 177.38 460.408 176.887 460.701 176.46C461.008 176.033 461.428 175.7 461.961 175.46C462.495 175.207 463.101 175.08 463.781 175.08C464.448 175.08 465.081 175.18 465.681 175.38C466.281 175.567 466.888 175.873 467.501 176.3L466.781 177.32C466.275 176.96 465.768 176.7 465.261 176.54C464.755 176.367 464.241 176.28 463.721 176.28C463.081 176.28 462.568 176.42 462.181 176.7C461.795 176.98 461.601 177.36 461.601 177.84C461.601 178.24 461.721 178.547 461.961 178.76C462.215 178.973 462.655 179.133 463.281 179.24L464.921 179.54C465.908 179.713 466.628 180.013 467.081 180.44C467.535 180.867 467.761 181.44 467.761 182.16C467.761 182.733 467.595 183.253 467.261 183.72C466.928 184.173 466.475 184.533 465.901 184.8C465.328 185.067 464.681 185.2 463.961 185.2ZM474.402 185.16C473.495 185.16 472.682 184.94 471.962 184.5C471.242 184.06 470.675 183.46 470.262 182.7C469.849 181.94 469.642 181.08 469.642 180.12C469.642 179.16 469.849 178.3 470.262 177.54C470.675 176.78 471.242 176.18 471.962 175.74C472.682 175.3 473.495 175.08 474.402 175.08C475.295 175.08 476.095 175.3 476.802 175.74C477.522 176.18 478.089 176.78 478.502 177.54C478.915 178.3 479.122 179.16 479.122 180.12C479.122 181.08 478.915 181.94 478.502 182.7C478.089 183.46 477.522 184.06 476.802 184.5C476.095 184.94 475.295 185.16 474.402 185.16ZM474.382 183.88C475.022 183.88 475.589 183.72 476.082 183.4C476.575 183.067 476.962 182.613 477.242 182.04C477.535 181.467 477.682 180.827 477.682 180.12C477.682 179.4 477.535 178.76 477.242 178.2C476.962 177.627 476.575 177.18 476.082 176.86C475.589 176.527 475.022 176.36 474.382 176.36C473.742 176.36 473.175 176.527 472.682 176.86C472.189 177.18 471.795 177.627 471.502 178.2C471.222 178.76 471.082 179.4 471.082 180.12C471.082 180.827 471.222 181.467 471.502 182.04C471.795 182.613 472.189 183.067 472.682 183.4C473.175 183.72 473.742 183.88 474.382 183.88ZM482.318 185V176.44H480.138V175.24H482.318V173.2C482.318 172.24 482.571 171.5 483.078 170.98C483.585 170.46 484.305 170.2 485.238 170.2C485.505 170.2 485.745 170.213 485.958 170.24C486.185 170.267 486.385 170.313 486.558 170.38V171.7C486.345 171.633 486.151 171.587 485.978 171.56C485.805 171.533 485.605 171.52 485.378 171.52C484.818 171.52 484.411 171.66 484.158 171.94C483.905 172.207 483.778 172.633 483.778 173.22V175.24H486.558V176.44H483.778V185H482.318ZM492.396 185.2C491.556 185.2 490.916 185 490.476 184.6C490.049 184.187 489.836 183.593 489.836 182.82V176.44H487.816V175.24H489.836V172.56L491.296 172.22V175.24H494.096V176.44H491.296V182.44C491.296 182.96 491.402 183.333 491.616 183.56C491.842 183.787 492.209 183.9 492.716 183.9C492.969 183.9 493.196 183.88 493.396 183.84C493.596 183.8 493.829 183.733 494.096 183.64V184.94C493.829 185.033 493.549 185.1 493.256 185.14C492.962 185.18 492.676 185.2 492.396 185.2ZM498.17 185L495.49 175.24H496.91L498.95 183.04L501.29 175.24H502.59L504.93 183.04L506.95 175.24H508.33L505.67 185H504.25L501.93 177.12L499.61 185H498.17ZM513.317 185.18C512.624 185.18 512.01 185.053 511.477 184.8C510.944 184.547 510.524 184.2 510.217 183.76C509.924 183.307 509.777 182.787 509.777 182.2C509.777 181.613 509.93 181.107 510.237 180.68C510.544 180.24 510.97 179.9 511.517 179.66C512.064 179.42 512.704 179.3 513.437 179.3C513.997 179.3 514.524 179.36 515.017 179.48C515.524 179.6 515.99 179.793 516.417 180.06V178.72C516.417 177.92 516.204 177.32 515.777 176.92C515.35 176.507 514.724 176.3 513.897 176.3C513.444 176.3 512.977 176.367 512.497 176.5C512.03 176.633 511.51 176.847 510.937 177.14L510.397 176.02C511.704 175.393 512.93 175.08 514.077 175.08C515.29 175.08 516.224 175.38 516.877 175.98C517.53 176.567 517.857 177.413 517.857 178.52V185H516.417V183.86C515.99 184.3 515.517 184.633 514.997 184.86C514.477 185.073 513.917 185.18 513.317 185.18ZM511.177 182.16C511.177 182.733 511.397 183.193 511.837 183.54C512.29 183.887 512.884 184.06 513.617 184.06C514.164 184.06 514.664 183.967 515.117 183.78C515.584 183.593 516.017 183.313 516.417 182.94V181.06C516.004 180.82 515.577 180.647 515.137 180.54C514.697 180.42 514.204 180.36 513.657 180.36C512.91 180.36 512.31 180.527 511.857 180.86C511.404 181.18 511.177 181.613 511.177 182.16ZM520.824 185V175.24H522.284V177.24C522.538 176.56 522.898 176.033 523.364 175.66C523.844 175.273 524.391 175.08 525.004 175.08C525.178 175.08 525.338 175.093 525.484 175.12C525.631 175.133 525.778 175.167 525.924 175.22V176.54C525.764 176.487 525.591 176.447 525.404 176.42C525.231 176.38 525.064 176.36 524.904 176.36C524.304 176.36 523.778 176.533 523.324 176.88C522.884 177.227 522.538 177.713 522.284 178.34V185H520.824ZM531.65 185.2C530.743 185.2 529.923 184.98 529.19 184.54C528.457 184.087 527.877 183.48 527.45 182.72C527.023 181.947 526.81 181.08 526.81 180.12C526.81 179.16 527.01 178.3 527.41 177.54C527.823 176.78 528.377 176.18 529.07 175.74C529.763 175.3 530.537 175.08 531.39 175.08C532.257 175.08 533.023 175.3 533.69 175.74C534.37 176.167 534.903 176.753 535.29 177.5C535.69 178.233 535.89 179.067 535.89 180V180.44H528.23C528.283 181.107 528.463 181.707 528.77 182.24C529.09 182.76 529.503 183.173 530.01 183.48C530.53 183.773 531.097 183.92 531.71 183.92C532.217 183.92 532.703 183.833 533.17 183.66C533.65 183.473 534.057 183.227 534.39 182.92L535.31 183.9C534.75 184.34 534.17 184.667 533.57 184.88C532.97 185.093 532.33 185.2 531.65 185.2ZM528.27 179.4H534.45C534.383 178.813 534.203 178.293 533.91 177.84C533.63 177.373 533.27 177.007 532.83 176.74C532.403 176.473 531.923 176.34 531.39 176.34C530.857 176.34 530.37 176.473 529.93 176.74C529.49 176.993 529.123 177.353 528.83 177.82C528.55 178.273 528.363 178.8 528.27 179.4ZM546.071 185.18C545.377 185.18 544.764 185.053 544.231 184.8C543.697 184.547 543.277 184.2 542.971 183.76C542.677 183.307 542.531 182.787 542.531 182.2C542.531 181.613 542.684 181.107 542.991 180.68C543.297 180.24 543.724 179.9 544.271 179.66C544.817 179.42 545.457 179.3 546.191 179.3C546.751 179.3 547.277 179.36 547.771 179.48C548.277 179.6 548.744 179.793 549.171 180.06V178.72C549.171 177.92 548.957 177.32 548.531 176.92C548.104 176.507 547.477 176.3 546.651 176.3C546.197 176.3 545.731 176.367 545.251 176.5C544.784 176.633 544.264 176.847 543.691 177.14L543.151 176.02C544.457 175.393 545.684 175.08 546.831 175.08C548.044 175.08 548.977 175.38 549.631 175.98C550.284 176.567 550.611 177.413 550.611 178.52V185H549.171V183.86C548.744 184.3 548.271 184.633 547.751 184.86C547.231 185.073 546.671 185.18 546.071 185.18ZM543.931 182.16C543.931 182.733 544.151 183.193 544.591 183.54C545.044 183.887 545.637 184.06 546.371 184.06C546.917 184.06 547.417 183.967 547.871 183.78C548.337 183.593 548.771 183.313 549.171 182.94V181.06C548.757 180.82 548.331 180.647 547.891 180.54C547.451 180.42 546.957 180.36 546.411 180.36C545.664 180.36 545.064 180.527 544.611 180.86C544.157 181.18 543.931 181.613 543.931 182.16ZM553.578 185V175.24H555.038V177.24C555.291 176.56 555.651 176.033 556.118 175.66C556.598 175.273 557.145 175.08 557.758 175.08C557.931 175.08 558.091 175.093 558.238 175.12C558.385 175.133 558.531 175.167 558.678 175.22V176.54C558.518 176.487 558.345 176.447 558.158 176.42C557.985 176.38 557.818 176.36 557.658 176.36C557.058 176.36 556.531 176.533 556.078 176.88C555.638 177.227 555.291 177.713 555.038 178.34V185H553.578ZM564.384 185.16C563.477 185.16 562.657 184.94 561.924 184.5C561.204 184.047 560.631 183.44 560.204 182.68C559.777 181.907 559.564 181.053 559.564 180.12C559.564 179.173 559.777 178.32 560.204 177.56C560.631 176.8 561.204 176.2 561.924 175.76C562.657 175.307 563.477 175.08 564.384 175.08C565.104 175.08 565.791 175.213 566.444 175.48C567.097 175.747 567.664 176.12 568.144 176.6L567.204 177.62C566.857 177.233 566.437 176.933 565.944 176.72C565.451 176.507 564.951 176.4 564.444 176.4C563.804 176.4 563.224 176.567 562.704 176.9C562.197 177.233 561.791 177.68 561.484 178.24C561.177 178.8 561.024 179.427 561.024 180.12C561.024 180.813 561.177 181.44 561.484 182C561.791 182.56 562.197 183.007 562.704 183.34C563.224 183.673 563.804 183.84 564.444 183.84C564.951 183.84 565.451 183.733 565.944 183.52C566.437 183.293 566.857 182.993 567.204 182.62L568.144 183.64C567.664 184.12 567.097 184.493 566.444 184.76C565.791 185.027 565.104 185.16 564.384 185.16ZM570.18 185V170.56L571.64 170.26V176.82C572.013 176.233 572.46 175.8 572.98 175.52C573.5 175.227 574.086 175.08 574.74 175.08C575.446 175.08 576.06 175.233 576.58 175.54C577.113 175.833 577.526 176.253 577.82 176.8C578.126 177.333 578.28 177.96 578.28 178.68V185H576.82V179.1C576.82 178.233 576.58 177.553 576.1 177.06C575.633 176.553 575 176.3 574.2 176.3C573.666 176.3 573.18 176.427 572.74 176.68C572.3 176.933 571.933 177.307 571.64 177.8V185H570.18ZM581.195 185V175.24H582.655V185H581.195ZM581.935 172.82C581.642 172.82 581.388 172.72 581.175 172.52C580.975 172.307 580.875 172.06 580.875 171.78C580.875 171.5 580.975 171.26 581.175 171.06C581.388 170.847 581.642 170.74 581.935 170.74C582.228 170.74 582.475 170.847 582.675 171.06C582.888 171.26 582.995 171.5 582.995 171.78C582.995 172.06 582.888 172.307 582.675 172.52C582.475 172.72 582.228 172.82 581.935 172.82ZM589.368 185.2C588.528 185.2 587.888 185 587.448 184.6C587.022 184.187 586.808 183.593 586.808 182.82V176.44H584.788V175.24H586.808V172.56L588.268 172.22V175.24H591.068V176.44H588.268V182.44C588.268 182.96 588.375 183.333 588.588 183.56C588.815 183.787 589.182 183.9 589.688 183.9C589.942 183.9 590.168 183.88 590.368 183.84C590.568 183.8 590.802 183.733 591.068 183.64V184.94C590.802 185.033 590.522 185.1 590.228 185.14C589.935 185.18 589.648 185.2 589.368 185.2ZM597.412 185.2C596.505 185.2 595.685 184.98 594.952 184.54C594.218 184.087 593.638 183.48 593.212 182.72C592.785 181.947 592.572 181.08 592.572 180.12C592.572 179.16 592.772 178.3 593.172 177.54C593.585 176.78 594.138 176.18 594.832 175.74C595.525 175.3 596.298 175.08 597.152 175.08C598.018 175.08 598.785 175.3 599.452 175.74C600.132 176.167 600.665 176.753 601.052 177.5C601.452 178.233 601.652 179.067 601.652 180V180.44H593.992C594.045 181.107 594.225 181.707 594.532 182.24C594.852 182.76 595.265 183.173 595.772 183.48C596.292 183.773 596.858 183.92 597.472 183.92C597.978 183.92 598.465 183.833 598.932 183.66C599.412 183.473 599.818 183.227 600.152 182.92L601.072 183.9C600.512 184.34 599.932 184.667 599.332 184.88C598.732 185.093 598.092 185.2 597.412 185.2ZM594.032 179.4H600.212C600.145 178.813 599.965 178.293 599.672 177.84C599.392 177.373 599.032 177.007 598.592 176.74C598.165 176.473 597.685 176.34 597.152 176.34C596.618 176.34 596.132 176.473 595.692 176.74C595.252 176.993 594.885 177.353 594.592 177.82C594.312 178.273 594.125 178.8 594.032 179.4ZM608.525 185.16C607.618 185.16 606.798 184.94 606.065 184.5C605.345 184.047 604.771 183.44 604.345 182.68C603.918 181.907 603.705 181.053 603.705 180.12C603.705 179.173 603.918 178.32 604.345 177.56C604.771 176.8 605.345 176.2 606.065 175.76C606.798 175.307 607.618 175.08 608.525 175.08C609.245 175.08 609.931 175.213 610.585 175.48C611.238 175.747 611.805 176.12 612.285 176.6L611.345 177.62C610.998 177.233 610.578 176.933 610.085 176.72C609.591 176.507 609.091 176.4 608.585 176.4C607.945 176.4 607.365 176.567 606.845 176.9C606.338 177.233 605.931 177.68 605.625 178.24C605.318 178.8 605.165 179.427 605.165 180.12C605.165 180.813 605.318 181.44 605.625 182C605.931 182.56 606.338 183.007 606.845 183.34C607.365 183.673 607.945 183.84 608.585 183.84C609.091 183.84 609.591 183.733 610.085 183.52C610.578 183.293 610.998 182.993 611.345 182.62L612.285 183.64C611.805 184.12 611.238 184.493 610.585 184.76C609.931 185.027 609.245 185.16 608.525 185.16ZM618.236 185.2C617.396 185.2 616.756 185 616.316 184.6C615.889 184.187 615.676 183.593 615.676 182.82V176.44H613.656V175.24H615.676V172.56L617.136 172.22V175.24H619.936V176.44H617.136V182.44C617.136 182.96 617.242 183.333 617.456 183.56C617.682 183.787 618.049 183.9 618.556 183.9C618.809 183.9 619.036 183.88 619.236 183.84C619.436 183.8 619.669 183.733 619.936 183.64V184.94C619.669 185.033 619.389 185.1 619.096 185.14C618.802 185.18 618.516 185.2 618.236 185.2ZM625.554 185.16C624.861 185.16 624.248 185.007 623.714 184.7C623.181 184.393 622.761 183.967 622.454 183.42C622.161 182.873 622.014 182.247 622.014 181.54V175.24H623.494V181.12C623.494 181.987 623.728 182.673 624.194 183.18C624.661 183.687 625.294 183.94 626.094 183.94C626.641 183.94 627.128 183.813 627.554 183.56C627.994 183.307 628.361 182.94 628.654 182.46V175.24H630.114V185H628.654V183.42C628.281 183.993 627.834 184.427 627.314 184.72C626.808 185.013 626.221 185.16 625.554 185.16ZM633.109 185V175.24H634.569V177.24C634.823 176.56 635.183 176.033 635.649 175.66C636.129 175.273 636.676 175.08 637.289 175.08C637.463 175.08 637.623 175.093 637.769 175.12C637.916 175.133 638.063 175.167 638.209 175.22V176.54C638.049 176.487 637.876 176.447 637.689 176.42C637.516 176.38 637.349 176.36 637.189 176.36C636.589 176.36 636.063 176.533 635.609 176.88C635.169 177.227 634.823 177.713 634.569 178.34V185H633.109ZM643.935 185.2C643.028 185.2 642.208 184.98 641.475 184.54C640.742 184.087 640.162 183.48 639.735 182.72C639.308 181.947 639.095 181.08 639.095 180.12C639.095 179.16 639.295 178.3 639.695 177.54C640.108 176.78 640.662 176.18 641.355 175.74C642.048 175.3 642.822 175.08 643.675 175.08C644.542 175.08 645.308 175.3 645.975 175.74C646.655 176.167 647.188 176.753 647.575 177.5C647.975 178.233 648.175 179.067 648.175 180V180.44H640.515C640.568 181.107 640.748 181.707 641.055 182.24C641.375 182.76 641.788 183.173 642.295 183.48C642.815 183.773 643.382 183.92 643.995 183.92C644.502 183.92 644.988 183.833 645.455 183.66C645.935 183.473 646.342 183.227 646.675 182.92L647.595 183.9C647.035 184.34 646.455 184.667 645.855 184.88C645.255 185.093 644.615 185.2 643.935 185.2ZM640.555 179.4H646.735C646.668 178.813 646.488 178.293 646.195 177.84C645.915 177.373 645.555 177.007 645.115 176.74C644.688 176.473 644.208 176.34 643.675 176.34C643.142 176.34 642.655 176.473 642.215 176.74C641.775 176.993 641.408 177.353 641.115 177.82C640.835 178.273 640.648 178.8 640.555 179.4ZM649.66 188.14L650.86 183.52H652.42L650.8 188.14H649.66ZM662.848 185.18C662.155 185.18 661.541 185.053 661.008 184.8C660.475 184.547 660.055 184.2 659.748 183.76C659.455 183.307 659.308 182.787 659.308 182.2C659.308 181.613 659.461 181.107 659.768 180.68C660.075 180.24 660.501 179.9 661.048 179.66C661.595 179.42 662.235 179.3 662.968 179.3C663.528 179.3 664.055 179.36 664.548 179.48C665.055 179.6 665.521 179.793 665.948 180.06V178.72C665.948 177.92 665.735 177.32 665.308 176.92C664.881 176.507 664.255 176.3 663.428 176.3C662.975 176.3 662.508 176.367 662.028 176.5C661.561 176.633 661.041 176.847 660.468 177.14L659.928 176.02C661.235 175.393 662.461 175.08 663.608 175.08C664.821 175.08 665.755 175.38 666.408 175.98C667.061 176.567 667.388 177.413 667.388 178.52V185H665.948V183.86C665.521 184.3 665.048 184.633 664.528 184.86C664.008 185.073 663.448 185.18 662.848 185.18ZM660.708 182.16C660.708 182.733 660.928 183.193 661.368 183.54C661.821 183.887 662.415 184.06 663.148 184.06C663.695 184.06 664.195 183.967 664.648 183.78C665.115 183.593 665.548 183.313 665.948 182.94V181.06C665.535 180.82 665.108 180.647 664.668 180.54C664.228 180.42 663.735 180.36 663.188 180.36C662.441 180.36 661.841 180.527 661.388 180.86C660.935 181.18 660.708 181.613 660.708 182.16ZM670.355 185V175.24H671.815V176.82C672.189 176.233 672.635 175.8 673.155 175.52C673.675 175.227 674.262 175.08 674.915 175.08C675.622 175.08 676.235 175.233 676.755 175.54C677.289 175.833 677.702 176.253 677.995 176.8C678.302 177.333 678.455 177.96 678.455 178.68V185H676.995V179.1C676.995 178.233 676.755 177.553 676.275 177.06C675.809 176.553 675.175 176.3 674.375 176.3C673.842 176.3 673.355 176.427 672.915 176.68C672.475 176.933 672.109 177.307 671.815 177.8V185H670.355ZM685.451 185.14C684.611 185.14 683.851 184.92 683.171 184.48C682.491 184.027 681.951 183.427 681.551 182.68C681.151 181.92 680.951 181.073 680.951 180.14C680.951 179.193 681.151 178.347 681.551 177.6C681.964 176.84 682.517 176.24 683.211 175.8C683.904 175.347 684.677 175.12 685.531 175.12C686.131 175.12 686.691 175.24 687.211 175.48C687.731 175.707 688.184 176.04 688.571 176.48V170.56L690.031 170.26V185H688.571V183.7C688.197 184.167 687.744 184.527 687.211 184.78C686.677 185.02 686.091 185.14 685.451 185.14ZM685.811 183.86C686.384 183.86 686.911 183.747 687.391 183.52C687.871 183.293 688.264 182.973 688.571 182.56V177.72C688.251 177.307 687.844 176.987 687.351 176.76C686.871 176.52 686.357 176.4 685.811 176.4C685.157 176.4 684.571 176.56 684.051 176.88C683.544 177.2 683.137 177.64 682.831 178.2C682.537 178.76 682.391 179.4 682.391 180.12C682.391 180.827 682.537 181.467 682.831 182.04C683.137 182.6 683.544 183.047 684.051 183.38C684.571 183.7 685.157 183.86 685.811 183.86ZM702.079 185.16C701.173 185.16 700.353 184.94 699.619 184.5C698.899 184.047 698.326 183.44 697.899 182.68C697.473 181.907 697.259 181.053 697.259 180.12C697.259 179.173 697.473 178.32 697.899 177.56C698.326 176.8 698.899 176.2 699.619 175.76C700.353 175.307 701.173 175.08 702.079 175.08C702.799 175.08 703.486 175.213 704.139 175.48C704.793 175.747 705.359 176.12 705.839 176.6L704.899 177.62C704.553 177.233 704.133 176.933 703.639 176.72C703.146 176.507 702.646 176.4 702.139 176.4C701.499 176.4 700.919 176.567 700.399 176.9C699.893 177.233 699.486 177.68 699.179 178.24C698.873 178.8 698.719 179.427 698.719 180.12C698.719 180.813 698.873 181.44 699.179 182C699.486 182.56 699.893 183.007 700.399 183.34C700.919 183.673 701.499 183.84 702.139 183.84C702.646 183.84 703.146 183.733 703.639 183.52C704.133 183.293 704.553 182.993 704.899 182.62L705.839 183.64C705.359 184.12 704.793 184.493 704.139 184.76C703.486 185.027 702.799 185.16 702.079 185.16ZM707.875 185V170.56L709.335 170.26V185H707.875ZM716.728 185.2C715.821 185.2 715.001 184.98 714.268 184.54C713.535 184.087 712.955 183.48 712.528 182.72C712.101 181.947 711.888 181.08 711.888 180.12C711.888 179.16 712.088 178.3 712.488 177.54C712.901 176.78 713.455 176.18 714.148 175.74C714.841 175.3 715.615 175.08 716.468 175.08C717.335 175.08 718.101 175.3 718.768 175.74C719.448 176.167 719.981 176.753 720.368 177.5C720.768 178.233 720.968 179.067 720.968 180V180.44H713.308C713.361 181.107 713.541 181.707 713.848 182.24C714.168 182.76 714.581 183.173 715.088 183.48C715.608 183.773 716.175 183.92 716.788 183.92C717.295 183.92 717.781 183.833 718.248 183.66C718.728 183.473 719.135 183.227 719.468 182.92L720.388 183.9C719.828 184.34 719.248 184.667 718.648 184.88C718.048 185.093 717.408 185.2 716.728 185.2ZM713.348 179.4H719.528C719.461 178.813 719.281 178.293 718.988 177.84C718.708 177.373 718.348 177.007 717.908 176.74C717.481 176.473 717.001 176.34 716.468 176.34C715.935 176.34 715.448 176.473 715.008 176.74C714.568 176.993 714.201 177.353 713.908 177.82C713.628 178.273 713.441 178.8 713.348 179.4ZM726.286 185.18C725.592 185.18 724.979 185.053 724.446 184.8C723.912 184.547 723.492 184.2 723.186 183.76C722.892 183.307 722.746 182.787 722.746 182.2C722.746 181.613 722.899 181.107 723.206 180.68C723.512 180.24 723.939 179.9 724.486 179.66C725.032 179.42 725.672 179.3 726.406 179.3C726.966 179.3 727.492 179.36 727.986 179.48C728.492 179.6 728.959 179.793 729.386 180.06V178.72C729.386 177.92 729.172 177.32 728.746 176.92C728.319 176.507 727.692 176.3 726.866 176.3C726.412 176.3 725.946 176.367 725.466 176.5C724.999 176.633 724.479 176.847 723.906 177.14L723.366 176.02C724.672 175.393 725.899 175.08 727.046 175.08C728.259 175.08 729.192 175.38 729.846 175.98C730.499 176.567 730.826 177.413 730.826 178.52V185H729.386V183.86C728.959 184.3 728.486 184.633 727.966 184.86C727.446 185.073 726.886 185.18 726.286 185.18ZM724.146 182.16C724.146 182.733 724.366 183.193 724.806 183.54C725.259 183.887 725.852 184.06 726.586 184.06C727.132 184.06 727.632 183.967 728.086 183.78C728.552 183.593 728.986 183.313 729.386 182.94V181.06C728.972 180.82 728.546 180.647 728.106 180.54C727.666 180.42 727.172 180.36 726.626 180.36C725.879 180.36 725.279 180.527 724.826 180.86C724.372 181.18 724.146 181.613 724.146 182.16ZM733.793 185V175.24H735.253V176.82C735.626 176.233 736.073 175.8 736.593 175.52C737.113 175.227 737.7 175.08 738.353 175.08C739.06 175.08 739.673 175.233 740.193 175.54C740.726 175.833 741.14 176.253 741.433 176.8C741.74 177.333 741.893 177.96 741.893 178.68V185H740.433V179.1C740.433 178.233 740.193 177.553 739.713 177.06C739.246 176.553 738.613 176.3 737.813 176.3C737.28 176.3 736.793 176.427 736.353 176.68C735.913 176.933 735.546 177.307 735.253 177.8V185H733.793ZM753.876 185.16C752.969 185.16 752.149 184.94 751.416 184.5C750.696 184.047 750.123 183.44 749.696 182.68C749.269 181.907 749.056 181.053 749.056 180.12C749.056 179.173 749.269 178.32 749.696 177.56C750.123 176.8 750.696 176.2 751.416 175.76C752.149 175.307 752.969 175.08 753.876 175.08C754.596 175.08 755.283 175.213 755.936 175.48C756.589 175.747 757.156 176.12 757.636 176.6L756.696 177.62C756.349 177.233 755.929 176.933 755.436 176.72C754.943 176.507 754.443 176.4 753.936 176.4C753.296 176.4 752.716 176.567 752.196 176.9C751.689 177.233 751.283 177.68 750.976 178.24C750.669 178.8 750.516 179.427 750.516 180.12C750.516 180.813 750.669 181.44 750.976 182C751.283 182.56 751.689 183.007 752.196 183.34C752.716 183.673 753.296 183.84 753.936 183.84C754.443 183.84 754.943 183.733 755.436 183.52C755.929 183.293 756.349 182.993 756.696 182.62L757.636 183.64C757.156 184.12 756.589 184.493 755.936 184.76C755.283 185.027 754.596 185.16 753.876 185.16ZM763.699 185.16C762.792 185.16 761.979 184.94 761.259 184.5C760.539 184.06 759.972 183.46 759.559 182.7C759.146 181.94 758.939 181.08 758.939 180.12C758.939 179.16 759.146 178.3 759.559 177.54C759.972 176.78 760.539 176.18 761.259 175.74C761.979 175.3 762.792 175.08 763.699 175.08C764.592 175.08 765.392 175.3 766.099 175.74C766.819 176.18 767.386 176.78 767.799 177.54C768.212 178.3 768.419 179.16 768.419 180.12C768.419 181.08 768.212 181.94 767.799 182.7C767.386 183.46 766.819 184.06 766.099 184.5C765.392 184.94 764.592 185.16 763.699 185.16ZM763.679 183.88C764.319 183.88 764.886 183.72 765.379 183.4C765.872 183.067 766.259 182.613 766.539 182.04C766.832 181.467 766.979 180.827 766.979 180.12C766.979 179.4 766.832 178.76 766.539 178.2C766.259 177.627 765.872 177.18 765.379 176.86C764.886 176.527 764.319 176.36 763.679 176.36C763.039 176.36 762.472 176.527 761.979 176.86C761.486 177.18 761.092 177.627 760.799 178.2C760.519 178.76 760.379 179.4 760.379 180.12C760.379 180.827 760.519 181.467 760.799 182.04C761.092 182.613 761.486 183.067 761.979 183.4C762.472 183.72 763.039 183.88 763.679 183.88ZM775.04 185.14C774.2 185.14 773.44 184.92 772.76 184.48C772.08 184.027 771.54 183.427 771.14 182.68C770.74 181.92 770.54 181.073 770.54 180.14C770.54 179.193 770.74 178.347 771.14 177.6C771.554 176.84 772.107 176.24 772.8 175.8C773.494 175.347 774.267 175.12 775.12 175.12C775.72 175.12 776.28 175.24 776.8 175.48C777.32 175.707 777.774 176.04 778.16 176.48V170.56L779.62 170.26V185H778.16V183.7C777.787 184.167 777.334 184.527 776.8 184.78C776.267 185.02 775.68 185.14 775.04 185.14ZM775.4 183.86C775.974 183.86 776.5 183.747 776.98 183.52C777.46 183.293 777.854 182.973 778.16 182.56V177.72C777.84 177.307 777.434 176.987 776.94 176.76C776.46 176.52 775.947 176.4 775.4 176.4C774.747 176.4 774.16 176.56 773.64 176.88C773.134 177.2 772.727 177.64 772.42 178.2C772.127 178.76 771.98 179.4 771.98 180.12C771.98 180.827 772.127 181.467 772.42 182.04C772.727 182.6 773.134 183.047 773.64 183.38C774.16 183.7 774.747 183.86 775.4 183.86ZM787.021 185.2C786.114 185.2 785.294 184.98 784.561 184.54C783.828 184.087 783.248 183.48 782.821 182.72C782.394 181.947 782.181 181.08 782.181 180.12C782.181 179.16 782.381 178.3 782.781 177.54C783.194 176.78 783.748 176.18 784.441 175.74C785.134 175.3 785.908 175.08 786.761 175.08C787.628 175.08 788.394 175.3 789.061 175.74C789.741 176.167 790.274 176.753 790.661 177.5C791.061 178.233 791.261 179.067 791.261 180V180.44H783.601C783.654 181.107 783.834 181.707 784.141 182.24C784.461 182.76 784.874 183.173 785.381 183.48C785.901 183.773 786.468 183.92 787.081 183.92C787.588 183.92 788.074 183.833 788.541 183.66C789.021 183.473 789.428 183.227 789.761 182.92L790.681 183.9C790.121 184.34 789.541 184.667 788.941 184.88C788.341 185.093 787.701 185.2 787.021 185.2ZM783.641 179.4H789.821C789.754 178.813 789.574 178.293 789.281 177.84C789.001 177.373 788.641 177.007 788.201 176.74C787.774 176.473 787.294 176.34 786.761 176.34C786.228 176.34 785.741 176.473 785.301 176.74C784.861 176.993 784.494 177.353 784.201 177.82C783.921 178.273 783.734 178.8 783.641 179.4Z" fill="#2C74B3"/>
    </g>
  </g>
  <defs>
    <linearGradient id="paint0_linear_211_2" x1="425" y1="-546.5" x2="425" y2="308.5" gradientUnits="userSpaceOnUse">
      <stop stop-color="#0A2647"/>
      <stop offset="0.951249" stop-color="#0A2647" stop-opacity="0.25"/>
      <stop offset="0.499497" stop-color="#144272" stop-opacity="0"/>
    </linearGradient>
    <linearGradient id="paint1_linear_211_2" x1="403" y1="-344.5" x2="403.267" y2="409" gradientUnits="userSpaceOnUse">
      <stop stop-color="#0008C1" stop-opacity="0.5"/>
      <stop offset="0.653793" stop-color="#0008C1" stop-opacity="0"/>
    </linearGradient>
    <clipPath id="clip0_211_2">
      <rect width="850" height="300" rx="20" fill="white"/>
    </clipPath>
  </defs>
</svg>
